<svg xmlns="http://www.w3.org/2000/svg" width="27" height="28" fill="none" xmlns:v="https://vecta.io/nano"><path d="M25.138 4.667h-8.379V28H27V6.533a1.87 1.87 0 0 0-.545-1.32 1.86 1.86 0 0 0-1.317-.547h0zm-4.655 15.867h-1.862v-1.867h1.862v1.867zm0-4.667h-1.862V14h1.862v1.867zm0-4.667h-1.862V9.333h1.862V11.2zm3.724 9.333h-1.862v-1.867h1.862v1.867zm0-4.667h-1.862V14h1.862v1.867zm0-4.667h-1.862V9.333h1.862V11.2z" fill="url(#A)"/><path d="M12.923 0H1.974A1.97 1.97 0 0 0 .578.58 1.98 1.98 0 0 0 0 1.979V28h4.655v-2.8h5.586V28h4.655V1.979A1.98 1.98 0 0 0 14.318.58 1.97 1.97 0 0 0 12.923 0h0zM4.655 20.533H2.793v-1.867h1.862v1.867zm0-4.667H2.793V14h1.862v1.867zm0-4.667H2.793V9.333h1.862V11.2zm0-4.667H2.793V4.667h1.862v1.867zm3.724 14H6.517v-1.867h1.862v1.867zm0-4.667H6.517V14h1.862v1.867zm0-4.667H6.517V9.333h1.862V11.2zm0-4.667H6.517V4.667h1.862v1.867zm3.724 14h-1.862v-1.867h1.862v1.867zm0-4.667h-1.862V14h1.862v1.867zm0-4.667h-1.862V9.333h1.862V11.2zm0-4.667h-1.862V4.667h1.862v1.867z" fill="url(#B)"/><defs><linearGradient id="A" x1="21.879" y1="4.667" x2="21.879" y2="28" gradientUnits="userSpaceOnUse"><stop stop-color="#f73"/><stop offset="1" stop-color="#f0bc42"/></linearGradient><linearGradient id="B" x1="7.448" y1="0" x2="7.448" y2="28" gradientUnits="userSpaceOnUse"><stop stop-color="#f73"/><stop offset="1" stop-color="#f0bc42"/></linearGradient></defs></svg>