<svg xmlns="http://www.w3.org/2000/svg" width="22" height="20" fill="#5f7078" xmlns:v="https://vecta.io/nano"><path d="M21.804 4.923a1.1 1.1 0 0 0-.394-.352 1.09 1.09 0 0 0-.511-.127H5.866L4.597 1.367a2.21 2.21 0 0 0-.81-.995A2.18 2.18 0 0 0 2.566 0H0v2.222h2.566l5.218 12.65a1.11 1.11 0 0 0 .405.497 1.09 1.09 0 0 0 .61.187h8.8c.459 0 .869-.288 1.031-.72l3.3-8.889a1.12 1.12 0 0 0 .061-.527c-.022-.178-.086-.348-.188-.496zm-4.966 8.41H9.533l-2.75-6.667h12.529l-2.475 6.667zM9.35 20A1.66 1.66 0 0 0 11 18.333a1.66 1.66 0 0 0-1.65-1.667 1.66 1.66 0 0 0-1.65 1.667A1.66 1.66 0 0 0 9.35 20zm7.7 0a1.66 1.66 0 0 0 1.65-1.667 1.66 1.66 0 0 0-1.65-1.667 1.66 1.66 0 0 0-1.65 1.667c0 .921.738 1.667 1.65 1.667z"/></svg>