<svg width="32" height="32" viewBox="0 0 32 32" fill="none" xmlns="http://www.w3.org/2000/svg">
<circle cx="16" cy="16" r="16" fill="#F0BC42"/>
<path d="M22.7357 8.3104C22.4537 8.15319 22.1435 8.05321 21.8229 8.01618C21.5023 7.97916 21.1776 8.00581 20.8673 8.09462C20.557 8.18343 20.2672 8.33265 20.0145 8.53375C19.7618 8.73485 19.5512 8.98389 19.3946 9.26662L14.8339 17.4898L12.2237 14.8747C11.9971 14.6396 11.726 14.4521 11.4263 14.3231C11.1265 14.1941 10.8042 14.1262 10.478 14.1234C10.1518 14.1205 9.82831 14.1828 9.5264 14.3066C9.22448 14.4303 8.9502 14.6131 8.71953 14.8442C8.48887 15.0753 8.30646 15.3501 8.18294 15.6526C8.05942 15.9551 7.99726 16.2792 8.00009 16.606C8.00293 16.9328 8.0707 17.2558 8.19945 17.5561C8.3282 17.8564 8.51535 18.1279 8.74998 18.355L13.6633 23.2776C14.1276 23.744 14.754 24 15.4001 24L15.7404 23.9754C16.1169 23.9226 16.4761 23.783 16.7896 23.5675C17.1032 23.3521 17.3625 23.0666 17.5472 22.7337L23.6888 11.6578C23.8456 11.3753 23.9454 11.0646 23.9823 10.7435C24.0193 10.4224 23.9927 10.0971 23.9042 9.78629C23.8157 9.47546 23.667 9.18513 23.4665 8.9319C23.266 8.67866 23.0176 8.46748 22.7357 8.3104V8.3104Z" fill="white"/>
</svg>
