<svg xmlns="http://www.w3.org/2000/svg" width="41" height="40" fill="none" xmlns:v="https://vecta.io/nano"><path d="M10.022 36.364h7.289c0 2-1.64 3.636-3.644 3.636s-3.645-1.636-3.645-3.636zm-3.644-1.818h14.578v-3.636H6.378v3.636zm20.956-17.273c0 6.945-4.847 10.655-6.87 11.818H6.87C4.847 27.927 0 24.218 0 17.273 0 9.745 6.123 3.636 13.667 3.636s13.667 6.109 13.667 13.636zm8.874-3.873l-2.496 1.146 2.496 1.145 1.148 2.491 1.148-2.491L41 14.546 38.504 13.4l-1.148-2.491-1.148 2.491zm-4.319-2.491l1.713-3.745 3.754-1.709-3.754-1.709L31.889 0l-1.713 3.745-3.754 1.709 3.754 1.709 1.713 3.745z" fill="url(#A)"/><defs><linearGradient id="A" x1="20.5" y1="0" x2="20.5" y2="40" gradientUnits="userSpaceOnUse"><stop stop-color="#f73"/><stop offset="1" stop-color="#f0bc42"/></linearGradient></defs></svg>