<svg xmlns="http://www.w3.org/2000/svg" width="35" height="40" fill="none" xmlns:v="https://vecta.io/nano"><path d="M17.5 20a10 10 0 1 0 0-20 10 10 0 1 0 0 20zm7.484 2.547L21.25 37.5l-2.5-10.625 2.5-4.375h-7.5l2.5 4.375-2.5 10.625-3.734-14.953C4.445 22.813 0 27.367 0 33v3.25A3.75 3.75 0 0 0 3.75 40h27.5A3.75 3.75 0 0 0 35 36.25V33c0-5.633-4.445-10.187-10.016-10.453h0z" fill="url(#A)"/><defs><linearGradient id="A" x1="17.5" y1="0" x2="17.5" y2="40" gradientUnits="userSpaceOnUse"><stop stop-color="#f73"/><stop offset="1" stop-color="#f0bc42"/></linearGradient></defs></svg>