<svg xmlns="http://www.w3.org/2000/svg" width="28" height="28" fill="none" xmlns:v="https://vecta.io/nano"><path d="M7.333 13.333c1.945 0 3.81.773 5.185 2.148s2.148 3.24 2.148 5.185-.773 3.81-2.148 5.185S9.278 28 7.333 28s-3.81-.773-5.185-2.148S0 22.612 0 20.667s.773-3.81 2.148-5.185 3.241-2.148 5.185-2.148h0zM20.999 0a3 3 0 0 1 3 3v20.667a3 3 0 0 1-3 3h-7.413c1.38-1.437 2.222-3.304 2.386-5.289s-.361-3.966-1.486-5.609-2.782-2.849-4.692-3.415-3.956-.456-5.794.311V3.001A3 3 0 0 1 4.879.879a3 3 0 0 1 .974-.651A3 3 0 0 1 7.001 0H21h-.001zM8.672 16.003H6.675c-.14 0-.276.044-.389.125s-.198.197-.243.329l-1.341 3.997c-.034.1-.043.207-.027.312s.056.204.118.29.143.156.237.204.198.073.304.073h1.069l-1.036 3.12c-.248.748.781 1.232 1.199.563l3.329-5.329c.063-.101.098-.217.101-.336s-.026-.237-.083-.341-.142-.191-.245-.251-.219-.092-.338-.092h-.593l.571-1.795c.032-.1.04-.206.023-.309s-.058-.202-.12-.286-.143-.154-.236-.201-.197-.072-.302-.072h0zm17.661 1.333a1 1 0 0 1 .991.864l.009.136v1.997a1 1 0 0 1-.864.991l-.136.009h-1v-3.997h1 0zm0-5.333a1 1 0 0 1 .991.864l.009.136V15a1 1 0 0 1-.864.991l-.136.009h-1v-3.997h1 0zm0-5.333a1 1 0 0 1 .991.864l.009.136v1.997a1 1 0 0 1-.864.991l-.136.009h-1V6.669h1 0zm-7.997-2.003H9.671a1 1 0 0 0-.992.864l-.008.136v2a1 1 0 0 0 .864.991l.136.009h8.664a1 1 0 0 0 .991-.864l.009-.136v-2a1 1 0 0 0-1-1h.001z" fill="url(#A)"/><defs><linearGradient id="A" x1="13.667" y1="0" x2="13.667" y2="28" gradientUnits="userSpaceOnUse"><stop stop-color="#f73"/><stop offset="1" stop-color="#f0bc42"/></linearGradient></defs></svg>