<svg xmlns="http://www.w3.org/2000/svg" width="16" height="20" fill="none" xmlns:v="https://vecta.io/nano"><path d="M0 7.174C0 6.31.151 5.493.449 4.73c.285-.741.707-1.42 1.246-2.003A8.46 8.46 0 0 1 3.522 1.25 8.35 8.35 0 0 1 5.747.312C6.54.104 7.356-.001 8.176 0a7.95 7.95 0 0 1 3.537.801 6.69 6.69 0 0 1 2.657 2.327c.682 1.017 1.021 2.167 1.021 3.45 0 .769-.076 1.522-.23 2.257a9.2 9.2 0 0 1-.718 2.126 7.34 7.34 0 0 1-1.203 1.797 5.25 5.25 0 0 1-1.743 1.238c-.716.314-1.491.472-2.273.463-.543 0-1.086-.128-1.622-.385s-.92-.607-1.151-1.057l-.34 1.354-.28 1.141-.247.853c-.081.293-.186.578-.312.855l-.382.749c-.165.322-.35.633-.553.931l-.747 1.039-.166.059-.11-.12-.18-2.262c0-.737.088-1.564.261-2.482l.8-3.455.624-2.441c-.255-.519-.383-1.197-.383-2.031 0-.666.208-1.289.625-1.876s.946-.877 1.586-.877c.49 0 .87.162 1.143.488s.407.734.407 1.233c0 .529-.176 1.295-.529 2.296s-.529 1.751-.529 2.247c0 .503.18.925.54 1.255s.825.509 1.31.499c.44 0 .848-.1 1.227-.301.373-.195.696-.474.944-.815.539-.74.924-1.581 1.13-2.473l.24-1.334a9.3 9.3 0 0 0 .078-1.197c0-1.386-.44-2.466-1.315-3.24S9.268 1.957 7.86 1.957c-1.602 0-2.941.518-4.013 1.557s-1.614 2.353-1.614 3.95c0 .352.053.692.154 1.021s.207.589.323.782l.323.547c.1.171.152.293.152.367 0 .225-.059.517-.178.878s-.269.541-.445.541a1.92 1.92 0 0 1-.206-.038c-.416-.124-.791-.356-1.088-.672-.315-.328-.564-.713-.732-1.136S.239 8.899.147 8.456A5.43 5.43 0 0 1 0 7.174z" fill="url(#A)"/><defs><linearGradient id="A" x1="7.696" y1="0" x2="7.696" y2="20" gradientUnits="userSpaceOnUse"><stop stop-color="#f73"/><stop offset="1" stop-color="#f0bc42"/></linearGradient></defs></svg>