<svg xmlns="http://www.w3.org/2000/svg" width="21" height="21" fill="none" xmlns:v="https://vecta.io/nano"><path fill-rule="evenodd" d="M9.027.611l-1.582 1.58c-.128.128-.301.2-.482.2H4.475c-1.151 0-2.083.932-2.083 2.083v2.489c0 .182-.073.354-.2.483L.61 9.027c-.39.391-.61.92-.61 1.473s.219 1.082.61 1.473l1.582 1.582c.128.128.2.301.2.482v2.489c0 1.151.932 2.083 2.083 2.083h2.489c.182 0 .354.073.483.2l1.58 1.582c.391.39.92.61 1.473.61s1.082-.219 1.473-.61l1.582-1.582c.128-.128.301-.2.482-.2h2.489c1.151 0 2.083-.932 2.083-2.083v-2.489c0-.182.073-.354.2-.483l1.582-1.58c.39-.391.61-.92.61-1.473s-.219-1.082-.61-1.473l-1.582-1.582c-.128-.128-.2-.301-.2-.482V4.475c0-1.151-.932-2.083-2.083-2.083h-2.489c-.181 0-.355-.072-.483-.2L11.973.61C11.582.219 11.052 0 10.5 0S9.418.219 9.027.61v.001zM6.505 13.504l6.999-6.999.991.991-6.999 6.999-.991-.991zM7 7v1.4h1.4V7H7zM12.6 14H14v-1.4h-1.4V14z" fill="#ecab13"/></svg>