<svg xmlns="http://www.w3.org/2000/svg" width="20" height="20" fill="none" xmlns:v="https://vecta.io/nano"><path fill-rule="evenodd" d="M15.153 13.658a8.47 8.47 0 0 0-1.089-11.54C12.451.693 10.355-.063 8.203.004s-4.197.951-5.72 2.472A8.47 8.47 0 0 0 .004 8.2a8.47 8.47 0 0 0 2.112 5.869 8.46 8.46 0 0 0 11.543 1.083l.046.048 4.488 4.491c.098.098.215.176.343.23a1.06 1.06 0 0 0 .81 0c.129-.053.245-.131.344-.23a1.06 1.06 0 0 0 .31-.749 1.06 1.06 0 0 0-.31-.749l-4.489-4.49-.048-.045zm-2.196-9.684a6.35 6.35 0 0 1 1.896 4.501 6.35 6.35 0 0 1-1.859 4.516c-.592.593-1.296 1.062-2.071 1.382s-1.605.482-2.443.478-1.667-.173-2.439-.498-1.472-.801-2.06-1.398a6.35 6.35 0 0 1 .036-8.944c1.184-1.185 2.788-1.853 4.463-1.86s3.284.649 4.478 1.823z" fill="#5f7078"/></svg>