<svg xmlns="http://www.w3.org/2000/svg" width="24" height="24" fill="none" xmlns:v="https://vecta.io/nano"><path d="M23.933 8.616a1.2 1.2 0 0 0-1.041-.811l-6.84-.544-2.96-6.552a1.2 1.2 0 0 0-.441-.516C12.456.067 12.23 0 11.999 0a1.2 1.2 0 0 0-.651.192c-.194.126-.348.305-.442.516l-2.96 6.554-6.84.544a1.2 1.2 0 0 0-1.034.788 1.2 1.2 0 0 0-.041.676 1.2 1.2 0 0 0 .332.591l5.055 4.928-1.788 7.741a1.2 1.2 0 0 0 .487 1.258 1.2 1.2 0 0 0 1.349.01l6.533-4.355 6.533 4.355a1.2 1.2 0 0 0 1.372-.03 1.2 1.2 0 0 0 .448-1.297l-2.195-7.679L23.6 9.894a1.2 1.2 0 0 0 .334-1.278z" fill="#f0bc42"/></svg>