<svg xmlns="http://www.w3.org/2000/svg" width="25" height="28" fill="none" xmlns:v="https://vecta.io/nano"><path d="M17.466 17.533l-5.217 5.217-5.217-5.217C3.123 17.703 0 20.902 0 24.85v.525C0 26.824 1.176 28 2.625 28h19.249c1.449 0 2.625-1.176 2.625-2.625v-.525c0-3.948-3.122-7.147-7.032-7.317h0zM.744 4.365l.35.082v3.194c-.383.23-.656.629-.656 1.11 0 .459.252.842.607 1.077l-.853 3.407c-.093.377.115.766.416.766h2.286c.301 0 .509-.388.416-.766l-.853-3.407c.355-.235.607-.618.607-1.077 0-.481-.273-.88-.656-1.11V4.764l3.609.869c-.47.941-.766 1.991-.766 3.117a7 7 0 0 0 13.999 0c0-1.127-.29-2.176-.766-3.117l5.266-1.269c.995-.241.995-1.482 0-1.723L13.338.127c-.711-.17-1.46-.17-2.171 0L.744 2.637c-.99.241-.99 1.487 0 1.728h0z" fill="url(#A)"/><defs><linearGradient id="A" x1="12.249" y1="0" x2="12.249" y2="28" gradientUnits="userSpaceOnUse"><stop stop-color="#f73"/><stop offset="1" stop-color="#ecab13"/></linearGradient></defs></svg>