<svg xmlns="http://www.w3.org/2000/svg" width="35" height="40" fill="none" xmlns:v="https://vecta.io/nano"><path d="M13.34 3.81h7.619a1.91 1.91 0 0 0 1.905-1.905A1.91 1.91 0 0 0 20.959 0H13.34a1.91 1.91 0 0 0-1.905 1.905A1.91 1.91 0 0 0 13.34 3.81zm17.2 8.362l1.429-1.428a1.89 1.89 0 0 0 0-2.667l-.019-.019a1.89 1.89 0 0 0-2.667 0l-1.429 1.429a17.07 17.07 0 0 0-10.705-3.771C8.006 5.714.235 13.257.006 22.4a17.14 17.14 0 0 0 1.17 6.701 17.14 17.14 0 0 0 9.304 9.552A17.14 17.14 0 0 0 17.149 40a17.13 17.13 0 0 0 15.446-9.703 17.13 17.13 0 0 0-2.056-18.125h0zM19.054 22.857a1.91 1.91 0 0 1-1.905 1.905 1.91 1.91 0 0 1-1.905-1.905v-7.619a1.91 1.91 0 0 1 1.905-1.905 1.91 1.91 0 0 1 1.905 1.905v7.619z" fill="url(#A)"/><defs><linearGradient id="A" x1="17.145" y1="0" x2="17.145" y2="40" gradientUnits="userSpaceOnUse"><stop stop-color="#f73"/><stop offset="1" stop-color="#f0bc42"/></linearGradient></defs></svg>