<svg xmlns="http://www.w3.org/2000/svg" width="22" height="26" fill="#f73" xmlns:v="https://vecta.io/nano"><path d="M9.75 8.832h2.167v1.104H9.75V8.832zm0-4.416h2.167V5.52H9.75V4.416zm0 6.624h2.167v1.104H9.75V11.04zm10.833 2.208V9.936c-3.303-.001-6.502 1.17-9.05 3.312h-1.4c-2.548-2.142-5.748-3.313-9.05-3.312v3.312c-.287 0-.563.116-.766.323S0 14.06 0 14.352v2.208c0 .293.114.574.317.781s.479.323.766.323v4.416c3.621-.003 7.107 1.398 9.75 3.919 2.646-2.517 6.13-3.918 9.75-3.919v-4.416c.287 0 .563-.116.766-.323s.317-.488.317-.781v-2.208c0-.293-.114-.574-.317-.781s-.479-.323-.766-.323z"/><path d="M7.583 5.52c.598 0 1.083-.494 1.083-1.104s-.485-1.104-1.083-1.104S6.5 3.806 6.5 4.416 6.985 5.52 7.583 5.52zm6.5 0c.598 0 1.083-.494 1.083-1.104s-.485-1.104-1.083-1.104S13 3.806 13 4.416s.485 1.104 1.083 1.104zm1.084 3.312H6.5a3.22 3.22 0 0 1-2.297-.971A3.35 3.35 0 0 1 3.25 5.52V3.312A3.35 3.35 0 0 1 4.203.971 3.22 3.22 0 0 1 6.5 0h8.667a3.22 3.22 0 0 1 2.297.971 3.35 3.35 0 0 1 .953 2.341V5.52a3.35 3.35 0 0 1-.953 2.341 3.22 3.22 0 0 1-2.297.971zM6.5 2.208c-.287 0-.563.117-.766.324a1.12 1.12 0 0 0-.318.78V5.52c0 .293.115.573.318.78s.478.323.766.324h8.667c.287 0 .563-.117.766-.324a1.12 1.12 0 0 0 .318-.78V3.312a1.11 1.11 0 0 0-.318-.78 1.08 1.08 0 0 0-.766-.324H6.5z"/></svg>