<svg xmlns="http://www.w3.org/2000/svg" width="100" height="100" fill="none" xmlns:v="https://vecta.io/nano"><rect width="100" height="100" rx="50" fill="#fff"/><path d="M33.192 32.052C30.031 31.609 27 34.035 27 37.367v26.27c0 3.328 3.031 5.754 6.189 5.31l1.463-.194A124.33 124.33 0 0 1 50 67.831c7.337 0 13.184.605 16.813 1.116 3.156.446 6.187-1.983 6.187-5.31V37.365c0-3.328-3.031-5.756-6.192-5.313-3.625.511-9.469 1.116-16.808 1.116s-13.184-.605-16.808-1.116zM66.1 65.358a119.57 119.57 0 0 0-8.05-.751v-7.175h5.75c.61 0 1.195.243 1.626.677s.674 1.021.674 1.634v5.613.002zm-11.5-.913a135.81 135.81 0 0 0-9.2 0v-7.013c0-.613.242-1.201.674-1.634s1.016-.677 1.626-.677h4.6c.61 0 1.195.243 1.626.677s.674 1.021.674 1.634v7.011.002zm-12.65.162a119.57 119.57 0 0 0-8.05.751v-5.615c0-.613.242-1.201.674-1.634s1.016-.677 1.626-.677h5.75v7.173.002zM50 52.811a3.44 3.44 0 0 1-2.44-1.015c-.647-.65-1.011-1.532-1.011-2.451s.364-1.801 1.011-2.451a3.44 3.44 0 0 1 4.879 0c.647.65 1.011 1.532 1.011 2.451s-.364 1.801-1.011 2.451A3.44 3.44 0 0 1 50 52.811zm-8.05-1.155a3.48 3.48 0 0 1-.263 1.326 3.47 3.47 0 0 1-.748 1.125 3.45 3.45 0 0 1-1.119.751c-.419.174-.867.264-1.32.264s-.902-.09-1.32-.264a3.45 3.45 0 0 1-1.119-.751 3.47 3.47 0 0 1-.748-1.125 3.48 3.48 0 0 1-.263-1.326c0-.919.364-1.801 1.011-2.451a3.44 3.44 0 0 1 4.879 0c.647.65 1.011 1.532 1.011 2.451zm23 0c0 .919-.364 1.801-1.011 2.451a3.44 3.44 0 0 1-4.879 0c-.647-.65-1.011-1.532-1.011-2.451s.364-1.801 1.011-2.451a3.44 3.44 0 0 1 4.879 0c.647.65 1.011 1.532 1.011 2.451z" fill="#ecab13"/></svg>