<svg xmlns="http://www.w3.org/2000/svg" width="100" height="100" fill="none" xmlns:v="https://vecta.io/nano"><rect width="100" height="100" rx="50" fill="#fff"/><path d="M34.962 29A7.96 7.96 0 0 0 27 36.962v19.462a7.96 7.96 0 0 0 7.962 7.962h23a7.96 7.96 0 0 0 7.962-7.962V36.962A7.96 7.96 0 0 0 57.962 29h-23zm6.192 24.755V39.63a1.77 1.77 0 0 1 .935-1.562 1.77 1.77 0 0 1 1.818.09l10.605 7.063a1.77 1.77 0 0 1 .79 1.474 1.77 1.77 0 0 1-.79 1.474l-10.608 7.063a1.77 1.77 0 0 1-1.817.086 1.77 1.77 0 0 1-.933-1.562zm0 17.706a8.83 8.83 0 0 1-3.957-.932c-1.229-.614-2.297-1.507-3.12-2.606h25.654a9.73 9.73 0 0 0 9.731-9.731V36.077C71.609 37.691 73 40.259 73 43.154v15.039a13.27 13.27 0 0 1-13.269 13.269H41.154z" fill="#ecab13"/></svg>