<svg xmlns="http://www.w3.org/2000/svg" width="177" height="155" fill="none" xmlns:v="https://vecta.io/nano"><rect width="177" height="155" rx="24" fill="#fff"/><path d="M60.322 101V88.526h8.424v2.358H63.13v2.448h4.986v2.304H63.13v3.006h6.03V101h-8.838zm14.885-6.588l1.872-2.88h2.772l-3.24 4.554 1.962 2.628c.588.852 1.056 1.614 1.404 2.286h-2.88l-.36-.666-.486-.846-.576-.882-.576-.81-.558.756-.522.846-.504.828-.414.774h-2.736c.144-.3.342-.654.594-1.062l.81-1.26.936-1.314.954-1.242-1.62-2.286-1.602-2.304h2.898l1.872 2.88zm12.271 1.926c0-.828-.186-1.488-.558-1.98-.372-.504-.924-.756-1.656-.756a5.72 5.72 0 0 0-.666.036l-.504.054v4.842a2.34 2.34 0 0 0 .648.27 3.27 3.27 0 0 0 .828.108c1.272 0 1.908-.858 1.908-2.574zm2.736-.072c0 .732-.09 1.398-.27 1.998s-.444 1.116-.792 1.548-.78.768-1.296 1.008-1.11.36-1.782.36c-.372 0-.72-.036-1.044-.108s-.636-.174-.936-.306v3.564h-2.682V91.856c.24-.072.516-.138.828-.198l.972-.18 1.044-.108 1.026-.054c.78 0 1.476.12 2.088.36.612.228 1.128.558 1.548.99.42.42.738.936.954 1.548.228.612.342 1.296.342 2.052zm1.611.072c0-.84.126-1.572.378-2.196.264-.636.606-1.164 1.026-1.584s.9-.738 1.44-.954c.552-.216 1.116-.324 1.692-.324 1.344 0 2.406.414 3.186 1.242.78.816 1.17 2.022 1.17 3.618l-.018.522-.036.486h-6.084a1.78 1.78 0 0 0 .774 1.314c.456.324 1.068.486 1.836.486.492 0 .972-.042 1.44-.126.48-.096.87-.21 1.17-.342l.36 2.178a3.71 3.71 0 0 1-.576.216 6.29 6.29 0 0 1-.81.18 9.63 9.63 0 0 1-.936.144c-.336.036-.672.054-1.008.054-.852 0-1.596-.126-2.232-.378-.624-.252-1.146-.594-1.566-1.026-.408-.444-.714-.966-.918-1.566-.192-.6-.288-1.248-.288-1.944zm6.3-1.026c-.012-.228-.054-.45-.126-.666-.06-.216-.162-.408-.306-.576a1.51 1.51 0 0 0-.522-.414c-.204-.108-.462-.162-.774-.162-.3 0-.558.054-.774.162-.216.096-.396.228-.54.396s-.258.366-.342.594a4.15 4.15 0 0 0-.162.666h3.546zm10.367-1.404l-.846-.18c-.324-.072-.672-.108-1.044-.108a4.23 4.23 0 0 0-.612.054c-.228.024-.402.054-.522.09V101h-2.682v-8.964c.48-.168 1.044-.324 1.692-.468.66-.156 1.392-.234 2.196-.234.144 0 .318.012.522.036.204.012.408.036.612.072a5.45 5.45 0 0 1 .612.108c.204.036.378.084.522.144l-.45 2.214zm1.798-4.734l2.682-.432v2.79h3.222v2.232h-3.222v3.33c0 .564.096 1.014.288 1.35.204.336.606.504 1.206.504a5.58 5.58 0 0 0 .882-.072c.312-.06.594-.138.846-.234l.378 2.088a7.63 7.63 0 0 1-1.08.342c-.396.096-.882.144-1.458.144-.732 0-1.338-.096-1.818-.288-.48-.204-.864-.48-1.152-.828-.288-.36-.492-.792-.612-1.296-.108-.504-.162-1.062-.162-1.674v-7.956z" fill="#364045"/><path d="M29.415 123.464l-.432-.976-.56-1.28-.656-1.408-.64-1.376-.576-1.168-.416-.784-.288 4.096-.192 4.432h-1.52l.144-2.896.176-2.88.224-2.768.272-2.544h1.36l.928 1.664.992 2.016.96 2.096.848 1.904.848-1.904.96-2.096.992-2.016.928-1.664h1.36c.363 3.573.635 7.269.816 11.088h-1.52l-.192-4.432a97.72 97.72 0 0 0-.288-4.096c-.107.181-.251.443-.432.784a44.07 44.07 0 0 0-.56 1.168l-.656 1.376-.64 1.408-.576 1.28-.416.976h-1.248zm8.402-2.608c0-.736.107-1.376.32-1.92.213-.555.496-1.013.848-1.376s.757-.635 1.216-.816.928-.272 1.408-.272c1.12 0 1.979.352 2.576 1.056.597.693.896 1.755.896 3.184v.256c0 .096-.005.187-.016.272h-5.696c.064.864.315 1.52.752 1.968s1.12.672 2.048.672c.523 0 .96-.043 1.312-.128.363-.096.635-.187.816-.272l.208 1.248c-.181.096-.501.197-.96.304-.448.107-.96.16-1.536.16-.725 0-1.355-.107-1.888-.32a3.6 3.6 0 0 1-1.296-.912c-.341-.384-.597-.837-.768-1.36-.16-.533-.24-1.115-.24-1.744zm5.712-.816c.011-.672-.16-1.221-.512-1.648-.341-.437-.816-.656-1.424-.656-.341 0-.645.069-.912.208-.256.128-.475.299-.656.512s-.325.459-.432.736a3.9 3.9 0 0 0-.192.848h4.128zm3.69-3.12c.341-.085.795-.176 1.36-.272s1.216-.144 1.952-.144c.661 0 1.211.096 1.648.288.437.181.784.443 1.04.784a2.91 2.91 0 0 1 .56 1.2c.107.469.16.987.16 1.552V125H52.45v-4.352c0-.512-.037-.949-.112-1.312-.064-.363-.176-.656-.336-.88s-.373-.384-.64-.48c-.267-.107-.597-.16-.992-.16a7.71 7.71 0 0 0-.496.016c-.171.011-.336.027-.496.048a4.72 4.72 0 0 0-.416.048l-.256.048V125h-1.488v-8.08zm10.579-.24h3.152v1.248h-3.152v3.84c0 .416.032.763.096 1.04.064.267.16.48.288.64.128.149.288.256.48.32s.416.096.672.096c.448 0 .805-.048 1.072-.144l.576-.224.288 1.232c-.149.075-.411.165-.784.272-.373.117-.8.176-1.28.176-.565 0-1.035-.069-1.408-.208-.363-.149-.656-.368-.88-.656s-.384-.64-.48-1.056c-.085-.427-.128-.917-.128-1.472v-7.424l1.488-.256v2.576zm12.389 4.16c0 .661-.096 1.259-.288 1.792s-.464.992-.816 1.376a3.56 3.56 0 0 1-1.232.896c-.48.203-1.003.304-1.568.304s-1.088-.101-1.568-.304c-.48-.213-.896-.512-1.248-.896-.341-.384-.608-.843-.8-1.376s-.288-1.131-.288-1.792a5.21 5.21 0 0 1 .288-1.776c.192-.544.459-1.008.8-1.392a3.55 3.55 0 0 1 1.248-.88c.48-.213 1.003-.32 1.568-.32s1.088.107 1.568.32c.48.203.891.496 1.232.88.352.384.624.848.816 1.392a5.21 5.21 0 0 1 .288 1.776zm-1.552 0c0-.939-.213-1.68-.64-2.224-.416-.555-.987-.832-1.712-.832s-1.301.277-1.728.832c-.416.544-.624 1.285-.624 2.224s.208 1.685.624 2.24c.427.544 1.003.816 1.728.816s1.296-.272 1.712-.816c.427-.555.64-1.301.64-2.24zm6.718-4.336a3.36 3.36 0 0 1 .432.032 3.76 3.76 0 0 1 .496.064 3.86 3.86 0 0 1 .432.08 2.03 2.03 0 0 1 .304.064l-.256 1.296c-.117-.043-.315-.091-.592-.144-.267-.064-.613-.096-1.04-.096a3.69 3.69 0 0 0-.832.096l-.528.112V125H72.28v-7.968c.352-.128.789-.245 1.312-.352a8.08 8.08 0 0 1 1.76-.176zm6.259 5.552c0-.416.064-.784.192-1.104a3.12 3.12 0 0 1 .512-.88c.224-.267.48-.496.768-.688a6.3 6.3 0 0 1 .896-.528c-.789-.789-1.184-1.605-1.184-2.448 0-.427.069-.811.208-1.152.149-.341.347-.629.592-.864.256-.235.555-.416.896-.544.352-.128.736-.192 1.152-.192.427 0 .805.064 1.136.192.341.128.624.299.848.512.235.213.411.469.528.768a2.56 2.56 0 0 1 .176.944c0 .373-.064.709-.192 1.008a2.78 2.78 0 0 1-.496.816c-.203.245-.437.469-.704.672a6.34 6.34 0 0 1-.848.544l2.592 2.64c.363-.672.597-1.419.704-2.24l1.232.16c-.043.437-.155.917-.336 1.44-.171.512-.416 1.024-.736 1.536.373.405.715.805 1.024 1.2a7.65 7.65 0 0 1 .784 1.152h-1.568c-.128-.213-.288-.432-.48-.656a16.07 16.07 0 0 0-.576-.672c-.437.437-.944.795-1.52 1.072-.576.267-1.237.4-1.984.4-.693 0-1.269-.096-1.728-.288-.459-.203-.832-.453-1.12-.752-.277-.309-.475-.645-.592-1.008s-.176-.709-.176-1.04zm1.488-.032a1.98 1.98 0 0 0 .112.624c.075.224.197.432.368.624.171.181.389.336.656.464.277.117.619.176 1.024.176.523 0 1.003-.096 1.44-.288a3.62 3.62 0 0 0 1.184-.816l-3.12-3.152a6.85 6.85 0 0 0-.592.336c-.192.128-.368.288-.528.48a2.34 2.34 0 0 0-.4.656c-.096.256-.144.555-.144.896zm3.888-5.904c0-.363-.123-.667-.368-.912-.235-.256-.56-.384-.976-.384-.469 0-.832.144-1.088.432-.245.277-.368.624-.368 1.04 0 .693.363 1.371 1.088 2.032.235-.117.453-.245.656-.384a2.39 2.39 0 0 0 .544-.48 2.03 2.03 0 0 0 .368-.592c.096-.224.144-.475.144-.752zm14.391 9.12c-.778 0-1.488-.128-2.128-.384a4.52 4.52 0 0 1-1.648-1.12c-.459-.491-.816-1.093-1.072-1.808-.245-.725-.368-1.552-.368-2.48s.139-1.749.416-2.464c.288-.725.672-1.333 1.152-1.824s1.04-.864 1.68-1.12a5.46 5.46 0 0 1 2.048-.384c.459 0 .87.032 1.232.096.374.064.694.139.96.224a4.44 4.44 0 0 1 .672.256c.171.085.288.149.352.192l-.448 1.28a2.48 2.48 0 0 0-.416-.208c-.181-.075-.389-.149-.624-.224-.224-.075-.474-.133-.752-.176-.266-.053-.538-.08-.816-.08-.586 0-1.114.101-1.584.304a3.28 3.28 0 0 0-1.2.88c-.331.384-.587.853-.768 1.408-.171.544-.256 1.157-.256 1.84 0 .661.075 1.264.224 1.808.16.544.395 1.013.704 1.408.309.384.693.683 1.152.896.47.213 1.014.32 1.632.32.715 0 1.307-.075 1.776-.224s.822-.283 1.056-.4l.4 1.28c-.074.053-.208.123-.4.208-.192.075-.432.149-.72.224s-.624.139-1.008.192-.8.08-1.248.08zm12.168-4.4c0 .661-.096 1.259-.288 1.792s-.464.992-.816 1.376c-.341.384-.752.683-1.232.896-.48.203-1.003.304-1.568.304s-1.088-.101-1.568-.304c-.48-.213-.896-.512-1.248-.896a4.18 4.18 0 0 1-.8-1.376c-.192-.533-.288-1.131-.288-1.792a5.21 5.21 0 0 1 .288-1.776c.192-.544.459-1.008.8-1.392a3.55 3.55 0 0 1 1.248-.88c.48-.213 1.003-.32 1.568-.32s1.088.107 1.568.32c.48.203.891.496 1.232.88.352.384.624.848.816 1.392a5.21 5.21 0 0 1 .288 1.776zm-1.552 0c0-.939-.213-1.68-.64-2.224-.416-.555-.987-.832-1.712-.832s-1.301.277-1.728.832c-.416.544-.624 1.285-.624 2.224s.208 1.685.624 2.24c.427.544 1.003.816 1.728.816s1.296-.272 1.712-.816c.427-.555.64-1.301.64-2.24zm10.269 3.92a18.96 18.96 0 0 1-1.36.272c-.554.096-1.2.144-1.936.144-.64 0-1.178-.091-1.616-.272-.437-.192-.789-.459-1.056-.8s-.458-.741-.576-1.2c-.117-.469-.176-.987-.176-1.552v-4.672h1.488v4.352c0 1.013.16 1.739.48 2.176s.859.656 1.616.656a7.69 7.69 0 0 0 .496-.016l.48-.032c.15-.021.283-.037.4-.048a1.46 1.46 0 0 0 .272-.064v-7.024h1.488v8.08zm5.636-8.256a3.36 3.36 0 0 1 .432.032c.171.011.336.032.496.064a3.86 3.86 0 0 1 .432.08 2.02 2.02 0 0 1 .304.064l-.256 1.296c-.117-.043-.315-.091-.592-.144-.267-.064-.613-.096-1.04-.096a3.69 3.69 0 0 0-.832.096l-.528.112V125h-1.488v-7.968a9.46 9.46 0 0 1 1.312-.352 8.08 8.08 0 0 1 1.76-.176zm5.036 7.424c.608 0 1.056-.08 1.344-.24.298-.16.448-.416.448-.768 0-.363-.144-.651-.432-.864s-.763-.453-1.424-.72l-.928-.384c-.288-.139-.539-.299-.752-.48s-.384-.4-.512-.656-.192-.571-.192-.944c0-.736.272-1.317.816-1.744.544-.437 1.285-.656 2.224-.656.234 0 .469.016.704.048a5.58 5.58 0 0 1 .656.096 4.49 4.49 0 0 1 .528.112c.16.043.282.08.368.112l-.272 1.28c-.16-.085-.411-.171-.752-.256-.342-.096-.752-.144-1.232-.144-.416 0-.779.085-1.088.256-.31.16-.464.416-.464.768 0 .181.032.341.096.48a1.31 1.31 0 0 0 .32.384 3.13 3.13 0 0 0 .544.304c.213.096.469.197.768.304a13.34 13.34 0 0 1 1.056.448c.309.139.57.304.784.496.224.192.394.427.512.704.117.267.176.597.176.992 0 .768-.288 1.349-.864 1.744-.566.395-1.376.592-2.432.592-.736 0-1.312-.064-1.728-.192-.416-.117-.699-.208-.848-.272l.272-1.28c.17.064.442.16.816.288s.869.192 1.488.192zm4.74-3.072c0-.736.107-1.376.32-1.92.214-.555.496-1.013.848-1.376a3.44 3.44 0 0 1 1.216-.816c.459-.181.928-.272 1.408-.272 1.12 0 1.979.352 2.576 1.056.598.693.896 1.755.896 3.184v.256a2.13 2.13 0 0 1-.016.272h-5.696c.064.864.315 1.52.752 1.968s1.12.672 2.048.672c.523 0 .96-.043 1.312-.128a5.12 5.12 0 0 0 .816-.272l.208 1.248c-.181.096-.501.197-.96.304-.448.107-.96.16-1.536.16-.725 0-1.354-.107-1.888-.32-.522-.224-.954-.528-1.296-.912s-.597-.837-.768-1.36c-.16-.533-.24-1.115-.24-1.744zm5.712-.816c.011-.672-.16-1.221-.512-1.648-.341-.437-.816-.656-1.424-.656-.341 0-.645.069-.912.208a2.07 2.07 0 0 0-.656.512 2.54 2.54 0 0 0-.432.736 3.9 3.9 0 0 0-.192.848h4.128zm5.626 3.888c.608 0 1.056-.08 1.344-.24.299-.16.448-.416.448-.768 0-.363-.144-.651-.432-.864s-.763-.453-1.424-.72l-.928-.384c-.288-.139-.539-.299-.752-.48a2.06 2.06 0 0 1-.512-.656c-.128-.256-.192-.571-.192-.944 0-.736.272-1.317.816-1.744.544-.437 1.285-.656 2.224-.656.235 0 .469.016.704.048a5.55 5.55 0 0 1 .656.096c.203.032.379.069.528.112a4.27 4.27 0 0 1 .368.112l-.272 1.28c-.16-.085-.411-.171-.752-.256-.341-.096-.752-.144-1.232-.144-.416 0-.779.085-1.088.256-.309.16-.464.416-.464.768 0 .181.032.341.096.48.075.139.181.267.32.384.149.107.331.208.544.304s.469.197.768.304a13.03 13.03 0 0 1 1.056.448c.309.139.571.304.784.496.224.192.395.427.512.704.117.267.176.597.176.992 0 .768-.288 1.349-.864 1.744-.565.395-1.376.592-2.432.592-.736 0-1.312-.064-1.728-.192-.416-.117-.699-.208-.848-.272l.272-1.28c.171.064.443.16.816.288s.869.192 1.488.192z" fill="#5f6f78"/><circle cx="89" cy="45" r="25" fill="#f73" fill-opacity=".1"/><path d="M89.375 45a6.5 6.5 0 1 0 0-13 6.5 6.5 0 1 0 0 13zm4.865 1.656l-2.427 9.719-1.625-6.906 1.625-2.844h-4.875l1.625 2.844-1.625 6.906-2.427-9.719C80.89 46.828 78 49.789 78 53.45v2.112A2.44 2.44 0 0 0 80.438 58h17.875a2.44 2.44 0 0 0 2.438-2.437V53.45c0-3.661-2.889-6.622-6.51-6.794z" fill="url(#A)"/><defs><linearGradient id="A" x1="89.375" y1="32" x2="89.375" y2="58" gradientUnits="userSpaceOnUse"><stop stop-color="#f73"/><stop offset="1" stop-color="#f0bc42"/></linearGradient></defs></svg>