<svg xmlns="http://www.w3.org/2000/svg" width="124" height="28" fill="none" xmlns:v="https://vecta.io/nano"><path d="M42.171 20.384V23H31.659V6.368h3.024v14.016h7.488zm1.234-3.6c0-1.104.16-2.072.48-2.904.336-.832.776-1.52 1.32-2.064a5.2 5.2 0 0 1 1.872-1.248c.704-.288 1.424-.432 2.16-.432 1.728 0 3.072.536 4.032 1.608.976 1.072 1.464 2.672 1.464 4.8l-.024.552-.024.528h-8.28c.08 1.008.432 1.792 1.056 2.352.64.544 1.56.816 2.76.816.704 0 1.344-.064 1.92-.192.592-.128 1.056-.264 1.392-.408l.384 2.376a5.36 5.36 0 0 1-.672.264c-.272.08-.592.152-.96.216-.352.08-.736.144-1.152.192a11.09 11.09 0 0 1-1.272.072c-1.104 0-2.064-.16-2.88-.48-.816-.336-1.488-.792-2.016-1.368-.528-.592-.92-1.28-1.176-2.064-.256-.8-.384-1.672-.384-2.616zm8.424-1.296a3.7 3.7 0 0 0-.168-1.128c-.112-.368-.28-.68-.504-.936-.208-.272-.472-.48-.792-.624-.304-.16-.672-.24-1.104-.24-.448 0-.84.088-1.176.264a2.67 2.67 0 0 0-.864.648c-.224.272-.4.584-.528.936a5.07 5.07 0 0 0-.264 1.08h5.4zm10.399 5.472c.896 0 1.576-.048 2.04-.144V17.6a5.65 5.65 0 0 0-.696-.144 6.49 6.49 0 0 0-1.008-.072c-.32 0-.648.024-.984.072a3.18 3.18 0 0 0-.888.264c-.256.128-.464.312-.624.552-.16.224-.24.512-.24.864 0 .688.216 1.168.648 1.44.432.256 1.016.384 1.752.384zm-.24-10.824c.96 0 1.768.12 2.424.36s1.176.576 1.56 1.008c.4.432.68.96.84 1.584.176.608.264 1.28.264 2.016v7.608l-2.04.336c-.896.144-1.912.216-3.048.216-.752 0-1.44-.072-2.064-.216s-1.16-.376-1.608-.696c-.432-.32-.776-.736-1.032-1.248-.24-.512-.36-1.144-.36-1.896 0-.72.136-1.328.408-1.824a3.45 3.45 0 0 1 1.152-1.2c.48-.32 1.032-.544 1.656-.672a9.05 9.05 0 0 1 1.992-.216 7.47 7.47 0 0 1 1.008.072 7.93 7.93 0 0 1 1.128.192v-.48c0-.336-.04-.656-.12-.96a1.83 1.83 0 0 0-.432-.792c-.192-.24-.456-.424-.792-.552-.32-.128-.728-.192-1.224-.192a10.97 10.97 0 0 0-1.848.144c-.56.096-1.016.208-1.368.336l-.36-2.352c.368-.128.904-.256 1.608-.384a12.61 12.61 0 0 1 2.256-.192zm8.644.72c.56-.16 1.288-.312 2.184-.456s1.888-.216 2.976-.216c1.024 0 1.88.144 2.568.432.688.272 1.232.664 1.632 1.176.416.496.704 1.104.864 1.824.176.704.264 1.48.264 2.328V23h-2.904v-6.6c0-.672-.048-1.24-.144-1.704-.08-.48-.224-.864-.432-1.152a1.57 1.57 0 0 0-.816-.648c-.336-.144-.752-.216-1.248-.216-.368 0-.752.024-1.152.072l-.888.12V23h-2.904V10.856zm24.695 9.528V23H84.815V6.368h3.024v14.016h7.488zm6.58.576c.896 0 1.576-.048 2.04-.144V17.6a5.65 5.65 0 0 0-.696-.144 6.49 6.49 0 0 0-1.008-.072c-.32 0-.648.024-.984.072a3.18 3.18 0 0 0-.888.264c-.256.128-.464.312-.624.552-.16.224-.24.512-.24.864 0 .688.216 1.168.648 1.44.432.256 1.016.384 1.752.384zm-.24-10.824c.96 0 1.768.12 2.424.36s1.176.576 1.56 1.008c.4.432.68.96.84 1.584.176.608.264 1.28.264 2.016v7.608l-2.04.336c-.896.144-1.912.216-3.048.216-.752 0-1.44-.072-2.064-.216s-1.16-.376-1.608-.696c-.432-.32-.776-.736-1.032-1.248-.24-.512-.36-1.144-.36-1.896 0-.72.136-1.328.408-1.824a3.45 3.45 0 0 1 1.152-1.2c.48-.32 1.032-.544 1.656-.672.64-.144 1.304-.216 1.992-.216a7.47 7.47 0 0 1 1.008.072 7.93 7.93 0 0 1 1.128.192v-.48c0-.336-.04-.656-.12-.96a1.83 1.83 0 0 0-.432-.792c-.192-.24-.456-.424-.792-.552-.32-.128-.728-.192-1.224-.192-.672 0-1.288.048-1.848.144s-1.016.208-1.368.336l-.36-2.352c.368-.128.904-.256 1.608-.384s1.456-.192 2.256-.192zm16.973 6.552c0-1.232-.248-2.208-.744-2.928-.48-.72-1.248-1.08-2.304-1.08-.48 0-.936.072-1.368.216-.416.144-.752.304-1.008.48V20.6l.792.144c.336.032.736.048 1.2.048 1.072 0 1.912-.36 2.52-1.08.608-.736.912-1.744.912-3.024zm2.976.048c0 1.008-.152 1.92-.456 2.736-.288.8-.712 1.488-1.272 2.064-.544.576-1.208 1.016-1.992 1.32s-1.672.456-2.664.456c-.96 0-1.88-.072-2.76-.216-.864-.144-1.584-.304-2.16-.48V4.856l2.904-.48v6.504c.336-.176.744-.336 1.224-.48.496-.144 1.04-.216 1.632-.216.88 0 1.664.16 2.352.48.704.304 1.288.744 1.752 1.32s.816 1.272 1.056 2.088c.256.8.384 1.688.384 2.664z" fill="#364045"/><g fill="#f73"><path d="M9.75 9.832h2.167v1.104H9.75V9.832zm0-4.416h2.167V6.52H9.75V5.416zm0 6.624h2.167v1.104H9.75V12.04zm10.833 2.208v-3.312c-3.303-.001-6.502 1.17-9.05 3.312h-1.4c-2.548-2.142-5.748-3.313-9.05-3.312v3.312c-.287 0-.563.116-.766.323S0 15.06 0 15.352v2.208c0 .293.114.574.317.781s.479.323.766.323v4.416c3.621-.003 7.107 1.398 9.75 3.919 2.646-2.517 6.13-3.918 9.75-3.919v-4.416c.287 0 .563-.116.766-.323s.317-.488.317-.781v-2.208c0-.293-.114-.574-.317-.781s-.479-.323-.766-.323z"/><path d="M7.583 6.52c.598 0 1.083-.494 1.083-1.104s-.485-1.104-1.083-1.104S6.5 4.806 6.5 5.416 6.985 6.52 7.583 6.52zm6.5 0c.598 0 1.083-.494 1.083-1.104s-.485-1.104-1.083-1.104S13 4.806 13 5.416s.485 1.104 1.083 1.104zm1.084 3.312H6.5a3.22 3.22 0 0 1-2.297-.971A3.35 3.35 0 0 1 3.25 6.52V4.312a3.35 3.35 0 0 1 .953-2.341A3.22 3.22 0 0 1 6.5 1h8.667a3.22 3.22 0 0 1 2.297.971 3.35 3.35 0 0 1 .953 2.341V6.52a3.35 3.35 0 0 1-.953 2.341 3.22 3.22 0 0 1-2.297.971zM6.5 3.208c-.287 0-.563.117-.766.324a1.12 1.12 0 0 0-.318.78V6.52c0 .293.115.573.318.78s.478.323.766.324h8.667c.287 0 .563-.117.766-.324a1.12 1.12 0 0 0 .318-.78V4.312a1.11 1.11 0 0 0-.318-.78 1.08 1.08 0 0 0-.766-.324H6.5z"/></g></svg>