<svg xmlns="http://www.w3.org/2000/svg" width="103" height="84" fill="none" xmlns:v="https://vecta.io/nano"><path d="M46.486 64.54c0-5.18-1.404-9.66-4.282-13.3-4.353-5.46-12.847-6.16-17.761-5.04-2.036-11.55 7.793-26.25 20.499-32.55L35.184 0C16.018 9.1-2.867 29.96.363 56.35 2.399 73.01 12.087 84 25.776 84c5.967 0 10.952-1.75 14.883-5.25s5.827-8.26 5.827-14.21zm56.514 0c0-5.18-1.404-9.66-4.282-13.3-4.423-5.46-12.847-6.16-17.761-5.04-2.036-11.55 7.793-26.25 20.5-32.55L91.697 0c-19.166 9.1-37.98 29.96-34.751 56.35C58.983 73.01 68.6 84 82.29 84c5.967 0 10.952-1.75 14.883-5.25S103 70.49 103 64.54z" fill="#f73" fill-opacity=".2"/></svg>